<svg 
 xmlns="http://www.w3.org/2000/svg"
 xmlns:xlink="http://www.w3.org/1999/xlink"
 width="196px" height="201px">
<path fill-rule="evenodd"  fill="rgb(69, 144, 88)"
 d="M88.482,199.012 C88.500,198.998 88.428,198.898 88.427,198.791 C88.425,198.652 88.512,198.548 88.538,198.515 C88.836,198.131 89.832,195.839 90.032,195.368 C90.209,194.948 90.481,194.095 90.696,193.380 C90.983,192.424 91.237,191.463 91.470,190.453 C91.912,188.542 92.246,186.716 92.466,184.986 C92.650,183.543 92.780,181.872 92.854,180.182 C92.912,178.844 92.931,177.531 92.909,176.206 C92.843,172.187 92.235,167.570 91.249,162.567 C90.268,157.586 88.857,152.577 87.597,149.756 C86.958,148.326 86.059,146.617 85.107,144.952 C83.068,141.387 80.819,138.034 78.356,134.847 C75.794,131.531 72.785,128.196 69.391,124.741 C65.545,120.826 61.777,117.564 57.937,113.642 C53.838,109.456 49.988,104.939 46.759,100.390 C45.204,98.198 43.798,95.962 42.664,93.818 C42.173,92.889 41.761,91.992 41.281,91.057 C40.905,90.327 40.574,89.712 40.340,89.014 C40.212,88.635 40.123,88.327 39.953,87.965 C39.757,87.550 39.577,87.281 39.621,87.247 C39.687,87.196 40.192,87.747 40.340,87.910 C41.179,88.838 42.137,90.147 42.387,90.560 C43.224,91.940 44.849,93.502 46.427,95.199 C48.259,97.169 49.889,99.098 51.739,101.052 C55.142,104.647 59.749,108.721 64.356,112.704 C67.883,115.753 72.034,119.301 74.593,121.704 C77.742,124.662 80.655,127.612 83.225,130.484 C85.578,133.112 87.741,135.745 89.755,138.436 C90.852,139.902 91.957,141.451 92.798,142.743 C94.959,146.063 96.697,149.283 98.055,152.462 C99.840,156.639 101.057,160.686 101.763,164.610 C102.566,169.073 102.715,174.518 102.538,179.078 C102.489,180.327 102.483,181.652 102.482,182.777 C102.482,183.148 102.522,184.286 102.482,184.765 C102.478,184.818 102.438,185.311 102.482,185.318 C102.509,185.322 102.567,185.089 102.648,184.931 C102.749,184.736 102.907,184.564 102.980,184.489 C103.381,184.080 104.203,183.062 104.917,182.336 C105.552,181.690 106.584,180.200 107.462,178.802 C108.163,177.686 108.769,176.597 109.233,175.599 C109.578,174.856 109.848,174.190 110.119,173.445 C110.957,171.138 112.054,168.183 112.553,166.653 C113.496,163.768 114.332,160.976 115.099,158.149 C116.479,153.061 117.766,147.680 118.419,143.682 C119.500,137.061 119.957,131.064 119.802,125.791 C119.688,121.876 118.920,116.118 117.976,110.660 C116.878,104.310 115.422,98.959 113.439,95.088 C111.660,91.616 109.239,88.164 106.079,84.762 C103.279,81.748 100.393,79.533 97.723,77.529 C93.701,74.509 90.374,71.434 86.435,68.307 C81.614,64.480 76.760,60.745 72.103,57.318 C67.596,54.002 62.408,50.359 57.328,46.882 C53.946,44.567 49.874,41.791 47.312,40.145 C42.776,37.231 38.836,34.715 34.530,31.475 C31.077,28.877 27.637,25.941 24.126,21.977 C21.897,19.461 20.063,17.011 18.538,14.523 C17.914,13.506 16.635,11.045 15.660,9.166 C15.119,8.125 14.321,6.329 13.723,5.080 C13.312,4.220 12.993,3.519 12.727,2.540 C12.456,1.538 12.322,0.000 12.174,-0.000 C12.025,-0.000 11.935,1.081 11.731,2.540 C11.632,3.255 11.523,3.944 11.399,4.638 C11.229,5.597 10.894,7.056 10.735,7.841 C10.599,8.514 10.435,9.445 10.292,10.271 C10.031,11.785 9.707,13.718 9.518,14.799 C9.182,16.722 8.608,19.377 8.079,21.757 C7.616,23.840 7.135,25.941 6.640,28.052 C5.926,31.097 5.063,34.969 4.538,37.108 C3.608,40.893 2.517,44.923 1.881,48.152 C1.242,51.399 0.731,54.629 0.443,57.429 C-0.020,61.925 -0.071,67.309 0.221,73.001 C0.540,79.198 1.220,85.013 2.269,90.505 C3.496,96.932 5.085,102.831 7.083,108.286 C9.349,114.474 12.320,120.717 16.103,127.171 C19.701,133.312 24.613,140.084 30.379,146.995 C35.320,152.916 41.281,159.170 47.866,165.438 C53.564,170.863 59.155,175.207 64.964,180.513 C68.197,183.466 71.837,186.573 75.589,189.625 C77.462,191.148 79.344,192.602 81.123,193.877 C82.406,194.796 83.834,195.796 84.941,196.527 C85.527,196.915 86.067,197.304 86.656,197.687 C87.268,198.084 87.842,198.407 88.206,198.791 C88.359,198.954 88.463,199.028 88.482,199.012 ZM106.024,74.436 C106.436,74.764 106.797,75.078 107.186,75.430 C107.818,76.003 108.432,76.462 109.067,77.032 C109.641,77.546 110.311,78.213 110.949,78.854 C111.711,79.619 112.599,80.483 113.217,81.118 C114.074,81.997 115.016,82.987 115.652,83.713 C116.450,84.626 117.417,85.844 118.308,87.026 C119.352,88.411 120.482,89.988 121.075,91.002 C121.970,92.532 122.710,94.081 123.289,95.641 C124.022,97.616 124.367,99.252 124.727,101.163 C125.149,103.399 125.662,105.437 126.055,107.679 C126.550,110.500 126.950,113.399 127.273,116.459 C127.793,121.399 128.071,126.144 128.045,130.359 C128.022,134.157 127.668,139.010 127.162,143.737 C126.747,147.618 125.747,152.350 125.225,154.284 C125.096,154.762 124.885,155.448 124.727,156.051 C124.625,156.443 124.531,156.781 124.395,157.155 C124.208,157.673 123.981,158.076 123.787,158.591 C123.641,158.975 123.558,159.317 123.399,159.696 C123.317,159.892 123.028,160.441 123.067,160.469 C123.161,160.535 124.236,159.261 125.170,157.929 C126.157,156.520 126.928,155.152 127.577,153.750 C129.482,149.636 130.634,145.619 131.307,142.421 C131.766,140.245 132.263,137.808 132.585,136.006 C133.004,133.658 133.439,131.341 133.858,128.993 C134.514,125.313 135.233,121.738 135.905,118.060 C136.629,114.099 137.738,108.445 137.953,106.629 C138.114,105.266 138.923,101.346 139.447,98.899 C139.629,98.045 140.256,96.212 140.830,94.702 C141.126,93.923 141.478,93.058 141.660,93.101 C141.862,93.147 141.748,94.285 141.660,95.309 C141.560,96.474 141.527,97.895 141.440,99.234 C141.360,100.471 141.346,101.637 141.273,102.874 C141.196,104.166 141.031,106.011 140.885,107.623 C140.726,109.392 140.615,111.102 140.443,112.869 C140.234,115.005 139.966,117.283 139.668,119.551 C139.539,120.532 139.229,122.669 139.004,124.245 C138.771,125.872 138.495,127.798 138.285,129.049 C138.036,130.529 137.608,132.697 137.233,134.571 C136.870,136.385 136.434,138.556 136.126,139.927 C135.675,141.941 135.189,143.934 134.688,145.780 C134.370,146.948 133.858,148.667 133.415,150.143 C132.688,152.564 131.832,155.382 131.202,157.155 C130.704,158.556 129.839,160.725 129.099,162.567 C128.219,164.756 127.200,167.251 126.443,168.917 C125.662,170.634 124.810,172.385 123.897,174.163 C123.240,175.444 122.491,176.835 121.739,178.194 C120.876,179.755 119.933,181.413 119.138,182.722 C117.941,184.694 116.598,186.735 115.154,188.796 C113.925,190.551 112.690,192.220 111.391,193.877 C110.493,195.023 109.424,196.359 108.735,197.135 C108.302,197.622 106.055,200.150 105.968,200.227 C105.806,200.372 105.286,200.833 105.360,200.945 C105.404,201.013 105.649,200.924 105.747,200.890 C106.435,200.649 107.086,200.713 107.905,200.613 C110.568,200.290 113.482,198.845 115.984,197.852 C117.115,197.404 119.560,196.690 121.573,196.141 C123.413,195.639 125.157,195.265 126.996,194.760 C128.972,194.218 130.918,193.618 132.917,192.938 C134.634,192.353 136.340,191.727 137.842,191.116 C139.043,190.627 140.653,189.905 142.103,189.238 C143.654,188.525 145.357,187.721 146.585,187.085 C148.059,186.321 149.460,185.540 150.846,184.710 C152.274,183.855 153.657,182.965 155.051,182.004 C155.879,181.435 157.357,180.336 158.538,179.464 C159.570,178.702 160.738,177.835 161.526,177.200 C162.566,176.362 163.689,175.389 164.791,174.384 C165.849,173.419 166.903,172.412 167.779,171.513 C168.824,170.439 170.162,168.921 171.375,167.482 C172.129,166.588 172.900,165.649 173.534,164.831 C174.524,163.554 175.458,162.267 176.245,161.076 C176.726,160.349 177.387,159.268 177.960,158.315 C178.501,157.417 179.099,156.410 179.510,155.665 C180.184,154.443 180.803,153.225 181.391,151.965 C181.840,151.002 182.258,150.041 182.664,149.038 C183.070,148.035 183.593,146.580 184.047,145.283 C184.393,144.299 184.730,143.310 185.043,142.357 C185.421,141.208 185.835,139.916 186.095,138.988 C186.347,138.089 186.691,136.631 186.980,135.399 C187.214,134.406 187.495,133.208 187.644,132.472 C187.874,131.338 188.107,129.941 188.308,128.607 C188.468,127.550 188.615,126.456 188.751,125.349 C188.926,123.922 189.074,122.530 189.194,121.152 C189.325,119.644 189.438,118.025 189.470,116.790 C189.494,115.863 189.491,114.831 189.470,113.808 C189.413,110.948 189.248,108.160 188.972,105.691 C188.820,104.326 188.606,102.822 188.364,101.328 C187.966,98.880 187.357,95.979 186.704,93.156 C186.220,91.067 185.670,88.765 185.209,87.026 C184.702,85.112 184.146,83.042 183.771,81.394 C183.498,80.197 183.240,78.957 182.996,77.694 C182.660,75.952 182.332,74.057 182.166,72.669 C182.037,71.596 181.922,70.174 181.834,68.859 C181.753,67.650 181.693,66.432 181.668,65.325 C181.644,64.278 181.640,63.191 181.668,62.288 C181.707,61.032 181.799,59.756 181.945,58.423 C182.106,56.941 182.326,55.497 182.609,54.060 C182.739,53.399 182.964,52.420 183.162,51.575 C183.447,50.357 183.741,49.166 184.047,47.986 C184.285,47.072 184.628,45.824 184.933,44.728 C185.352,43.218 185.834,41.505 186.206,40.255 C186.533,39.156 186.931,37.872 187.312,36.666 C187.715,35.392 188.190,33.901 188.530,32.911 C188.850,31.976 189.267,30.798 189.470,30.150 C189.807,29.079 190.063,28.069 190.411,27.002 C190.727,26.034 191.079,25.151 191.407,24.186 C191.708,23.302 192.077,22.114 192.403,21.039 C192.624,20.308 192.890,19.422 193.067,18.885 C193.320,18.121 193.600,17.444 193.842,16.676 C194.018,16.117 194.158,15.666 194.395,15.130 C194.665,14.522 194.982,14.068 195.281,13.474 C195.451,13.135 195.561,12.872 195.779,12.590 C195.895,12.439 196.028,12.291 196.000,12.259 C195.969,12.223 195.761,12.361 195.557,12.480 C195.367,12.590 194.928,12.772 194.561,12.921 C194.072,13.121 193.575,13.313 193.123,13.474 C191.972,13.882 190.997,14.360 189.858,14.799 C188.718,15.238 187.667,15.548 186.538,16.014 C185.432,16.470 184.481,16.975 183.383,17.449 C182.473,17.843 181.374,18.243 180.340,18.664 C179.316,19.081 178.283,19.517 177.352,19.934 C176.646,20.250 175.555,20.769 174.640,21.204 C173.940,21.538 172.597,22.186 172.095,22.419 C171.107,22.877 170.148,23.282 169.162,23.745 C168.313,24.143 167.040,24.789 165.953,25.346 C165.091,25.787 164.133,26.282 163.407,26.671 C162.276,27.277 161.222,27.894 160.087,28.493 C159.148,28.989 158.178,29.455 157.320,29.929 C156.502,30.382 155.423,31.049 154.498,31.586 C153.997,31.876 152.809,32.540 151.953,33.021 C151.036,33.537 150.063,34.093 149.296,34.568 C148.753,34.904 147.940,35.438 147.249,35.893 C146.546,36.355 145.621,36.965 145.146,37.273 C144.313,37.815 143.489,38.332 142.656,38.875 C141.832,39.412 140.912,40.020 140.277,40.476 C139.727,40.871 138.307,41.974 137.953,42.243 C137.155,42.848 136.370,43.405 135.573,44.010 C134.949,44.484 134.069,45.185 133.304,45.777 C132.412,46.469 131.378,47.243 130.648,47.820 C129.949,48.374 129.031,49.129 128.213,49.808 C127.348,50.527 126.483,51.258 125.668,51.962 C124.933,52.597 124.097,53.328 123.565,53.839 C122.851,54.526 122.237,55.201 121.518,55.882 C120.927,56.443 120.344,56.930 119.747,57.484 C119.118,58.068 118.247,58.955 117.478,59.748 C116.744,60.505 116.006,61.278 115.320,62.012 C114.839,62.526 113.607,63.881 112.941,64.607 C112.207,65.407 111.305,66.385 110.783,66.982 C110.160,67.692 109.561,68.399 108.957,69.135 C108.535,69.648 107.543,70.932 106.964,71.620 C106.778,71.842 106.575,72.085 106.411,72.283 C106.155,72.593 105.800,73.007 105.692,73.166 C105.524,73.414 105.441,73.600 105.249,73.718 C105.221,73.736 105.128,73.791 105.138,73.829 C105.147,73.861 105.283,73.877 105.304,73.884 C105.416,73.923 105.476,73.997 105.526,74.050 C105.649,74.180 105.842,74.292 106.024,74.436 Z"/>
</svg>