<svg width="196" height="47" viewBox="0 0 196 47" fill="none" xmlns="http://www.w3.org/2000/svg">
<path d="M0 0 C1.3638183 -0.00389679 2.72763252 -0.00954027 4.09143722 -0.0167709 C7.8244438 -0.03148909 11.55702699 -0.02136631 15.29001975 -0.00703418 C19.3214089 0.00409233 23.35273948 -0.00787244 27.38412476 -0.01687622 C35.27524134 -0.03079852 43.16619773 -0.02326035 51.05730666 -0.00820064 C60.24727703 0.00866969 69.4372076 0.00544798 78.62718867 0.00170528 C95.02329119 -0.00417128 111.41931689 0.00999116 127.81539917 0.03465271 C143.72558471 0.05858072 159.63566762 0.06565366 175.54586792 0.05516052 C192.87400094 0.0437527 210.20208651 0.04181897 227.53021896 0.05625862 C229.37762761 0.05778446 231.22503626 0.05930481 233.07244492 0.06081963 C233.98139713 0.06157744 234.89034934 0.06233525 235.82684556 0.06311603 C242.2331541 0.06785929 248.63944145 0.06600718 255.04574966 0.06175423 C262.85100316 0.05682901 270.65615961 0.06280569 278.46139087 0.08264852 C282.44391043 0.09252354 286.4262822 0.09762336 290.40880966 0.08975601 C294.0542501 0.08270184 297.69939222 0.0894974 301.3447933 0.10735964 C303.28850503 0.11332294 305.23224469 0.1045764 307.17594349 0.09531313 C313.86635522 0.14413722 319.01781816 0.2792135 324.1947937 5.00120544 C327.99627887 9.88338037 328.67564137 12.93414818 328.69743347 19.03421021 C328.70111016 19.70083154 328.70478685 20.36745288 328.70857495 21.05427486 C328.71960629 23.29269634 328.7234547 25.5310714 328.7272644 27.76951599 C328.73352953 29.37272285 328.74017638 30.97592826 328.74717712 32.57913208 C328.76821608 37.84871917 328.77858013 43.11830654 328.7885437 48.38792419 C328.79259148 50.20267566 328.79670841 52.01742697 328.80089378 53.83217812 C328.81994599 62.35913904 328.83417632 70.88609131 328.84250575 79.41306943 C328.85227527 89.2515991 328.87858717 99.08990362 328.91900665 108.92835397 C328.9491842 116.53527252 328.96397623 124.1421266 328.96728677 131.74910384 C328.96963561 136.29114731 328.97857431 140.83295025 329.00374794 145.37492943 C329.02706207 149.65053248 329.03124856 153.92573721 329.02098656 158.20138741 C329.02049188 159.76706137 329.02679234 161.33275517 329.0405426 162.89836884 C329.18024679 179.75402973 329.18024679 179.75402973 324.55026245 184.50120544 C318.14116738 189.45395452 311.98081349 189.06440903 304.10688782 189.00914001 C302.73155736 189.01375214 301.35623183 189.02010716 299.98091656 189.02804899 C296.21145678 189.04472272 292.4424029 189.03650511 288.6729418 189.02410412 C284.60403631 189.01504794 280.53520026 189.0290261 276.46630859 189.0400238 C268.49953005 189.05780709 260.53290226 189.05397005 252.56611782 189.04237324 C246.09178083 189.03333908 239.61748609 189.03211484 233.14314461 189.03646851 C232.22163008 189.03708144 231.30011556 189.03769437 230.35067635 189.03832588 C228.47864046 189.03960478 226.60660458 189.04090163 224.73456872 189.04221624 C207.18227655 189.05362132 189.63006796 189.04050914 172.07778949 189.01901478 C157.01559346 189.00114089 141.95352072 189.00425044 126.8913269 189.02268982 C109.40022233 189.04409268 91.90919098 189.05252582 74.41807514 189.04024076 C72.55323828 189.03896656 70.68840141 189.03770908 68.82356453 189.03646851 C67.906025 189.0358514 66.98848546 189.0352343 66.0431417 189.0345985 C59.57571935 189.03114407 53.10834343 189.03697589 46.64092827 189.04638672 C38.76060558 189.05760146 30.88044227 189.05457762 23.00013786 189.03326374 C18.97910257 189.02274667 14.95833309 189.01864259 10.93729973 189.03186035 C7.25658765 189.04377652 3.57638786 189.03723508 -0.10427772 189.01595014 C-2.06693139 189.00936292 -4.0296206 189.02242711 -5.99223715 189.03617907 C-16.87091247 188.93899224 -16.87091247 188.93899224 -21.44973755 184.50120544 C-25.09520683 180.1271156 -25.95067501 177.1328065 -25.95767212 171.48681641 C-25.96703206 170.46360516 -25.96703206 170.46360516 -25.9765811 169.41972297 C-25.99246624 167.1464776 -25.97992553 164.87431124 -25.96731567 162.60105896 C-25.97273888 160.96622596 -25.97986265 159.33139786 -25.98855591 157.69657898 C-26.00677017 153.26466523 -25.99972926 148.83312451 -25.98703957 144.40120435 C-25.97690033 139.75866023 -25.98630797 135.11614769 -25.99258423 130.47360229 C-25.99985867 122.67667417 -25.99027903 114.87989766 -25.97122192 107.08299255 C-25.94946119 98.07608459 -25.95649952 89.06953893 -25.97852755 80.06263977 C-25.99669646 72.32316383 -25.99923235 64.58379679 -25.98877287 56.84430641 C-25.98254515 52.22469169 -25.98168227 47.60524709 -25.99491882 42.98564339 C-26.00649816 38.64100365 -25.99841376 34.29682957 -25.9753418 29.95223999 C-25.97006547 28.36036387 -25.97155006 26.76844837 -25.98039246 25.17658806 C-26.05874804 9.63413035 -26.05874804 9.63413035 -21.44973755 4.50120544 C-14.3938083 -0.05657562 -8.25379381 -0.06308821 0 0 Z " fill="#439059" transform="translate(1359.4497375488281,148.49879455566406)"/>
<path d="M0 0 C4.64473982 -0.07416067 9.28913499 -0.12860615 13.93432617 -0.16479492 C15.51446536 -0.17988094 17.09456269 -0.2003525 18.67456055 -0.22631836 C20.94590585 -0.26271126 23.21669759 -0.27972762 25.48828125 -0.29296875 C26.54780754 -0.31619453 26.54780754 -0.31619453 27.6287384 -0.33988953 C32.53200662 -0.34157176 32.53200662 -0.34157176 34.61424446 1.17817974 C36.41675215 3.54789427 36.87959723 5.58660752 37.54196167 8.48970032 C37.94118835 10.20254715 37.94118835 10.20254715 38.34848022 11.94999695 C38.62906281 13.20440079 38.90964539 14.45880463 39.19873047 15.7512207 C39.50538593 17.08562521 39.81300721 18.41980809 40.121521 19.75378418 C40.9579495 23.38293338 41.78077475 27.01504813 42.60125494 30.6478312 C43.46656791 34.46836878 44.34432547 38.28604507 45.22073364 42.10404968 C46.88450055 49.36081244 48.5370332 56.62008572 50.18559086 63.88031691 C52.04211765 72.05395802 53.91103661 80.2247478 55.78108382 88.39530432 C59.86947979 106.26003484 63.93867099 124.12909877 68 142 C68.52312201 144.30130239 69.04625387 146.60260255 69.56939697 148.90390015 C70.71321636 153.93586869 71.85672751 158.96790717 73 164 C74.41939846 161.341809 75.39105449 158.89149012 76.07089233 155.95861816 C76.25821584 155.16171003 76.44553934 154.3648019 76.63853931 153.54374504 C76.83693755 152.67659433 77.03533579 151.80944363 77.23974609 150.91601562 C77.45506076 149.99344027 77.67037542 149.07086491 77.89221478 148.12033272 C78.60747004 145.05007633 79.31547329 141.9781951 80.0234375 138.90625 C80.52605655 136.74171178 81.02911136 134.5772747 81.53257751 132.41293335 C82.59968645 127.82119786 83.6635919 123.22873632 84.7250061 118.63568115 C86.36972775 111.51895771 88.02268778 104.40416304 89.67651367 97.28955078 C94.05337543 78.44984376 98.42318385 59.60857568 102.70424652 40.7468338 C103.41086649 37.63491714 104.12008622 34.5235923 104.82861328 31.41210938 C105.79204376 27.17873478 106.74343187 22.94291644 107.68701172 18.70507812 C108.09959039 16.8840365 108.51248685 15.06306682 108.92578125 13.2421875 C109.096577 12.45758148 109.26737274 11.67297546 109.44334412 10.86459351 C111.28882266 2.82498069 111.28882266 2.82498069 114 0 C117.04993976 -0.73657887 120.03182208 -0.67641502 123.15625 -0.62890625 C124.50426697 -0.63252419 124.50426697 -0.63252419 125.8795166 -0.63621521 C127.77926039 -0.63523585 129.67903239 -0.62182109 131.57861328 -0.59692383 C134.48959105 -0.56262265 137.39753321 -0.57625667 140.30859375 -0.59570312 C142.15365878 -0.58880466 143.99871596 -0.57913226 145.84375 -0.56640625 C146.71567993 -0.57136612 147.58760986 -0.57632599 148.48596191 -0.58143616 C149.29690308 -0.56559982 150.10784424 -0.54976349 150.94335938 -0.53344727 C152.01233459 -0.5241494 152.01233459 -0.5241494 153.10290527 -0.5146637 C155 0 155 0 156.60844421 1.48875427 C158.59566741 5.07496031 159.40278305 8.73625771 160.3215332 12.71337891 C160.63996059 14.03908968 160.63996059 14.03908968 160.96482086 15.39158249 C161.66928482 18.33447871 162.35998171 21.28043146 163.05078125 24.2265625 C163.54614932 26.30746678 164.04239776 28.38816166 164.53947449 30.46865845 C165.86725191 36.0359829 167.18348376 41.60597832 168.49765015 47.17652893 C169.85075066 52.90289429 171.21469541 58.62667274 172.578125 64.35058594 C174.47023959 72.29732308 176.35955052 80.24471422 178.24469566 88.1931076 C181.99315901 103.99607894 185.78773822 119.78760211 189.60971069 135.57293701 C190.48732065 139.19763188 191.36363829 142.82263671 192.23950195 146.44775391 C193.4921318 151.63204661 194.74568149 156.81611561 196 162 C197.36929216 158.74494046 198.42749291 155.59605619 199.21170044 152.1545105 C199.43007065 151.2053476 199.64844086 150.25618469 199.87342834 149.27825928 C200.10613937 148.24783508 200.3388504 147.21741089 200.57861328 146.15576172 C200.95479546 144.5126149 200.95479546 144.5126149 201.33857727 142.83627319 C202.16968241 139.20161399 202.99499937 135.56566587 203.8203125 131.9296875 C204.4032792 129.37501018 204.98660851 126.82041559 205.57028198 124.26589966 C206.95579406 118.19924798 208.33716285 112.13166075 209.71703327 106.06372368 C211.25566799 99.29846671 212.79868896 92.5342132 214.34220552 85.77006865 C215.09590617 82.46675026 215.84915866 79.16332967 216.60247803 75.85992432 C217.78243873 70.68568549 218.96349164 65.51169685 220.14508057 60.33782959 C222.63976051 49.40732598 225.12469407 38.47535464 227.54589844 27.52832031 C228.09091685 25.08088669 228.63672896 22.6336319 229.18294907 20.18646622 C229.66211485 18.02459567 230.13053955 15.86059422 230.59841919 13.69625854 C230.87773285 12.44571686 231.15704651 11.19517517 231.44482422 9.90673828 C231.79152664 8.31987717 231.79152664 8.31987717 232.14523315 6.70095825 C233.03961499 3.8748215 233.95056736 2.13425109 236 0 C239.06274414 -0.4699707 239.06274414 -0.4699707 242.78515625 -0.42578125 C243.44204941 -0.42249313 244.09894257 -0.41920502 244.77574158 -0.41581726 C246.16187473 -0.40540837 247.54796464 -0.38547805 248.93383789 -0.35668945 C251.05834822 -0.31258619 253.18172903 -0.29524995 255.30664062 -0.28320312 C265.63953444 -0.18023278 265.63953444 -0.18023278 268 1 C266.59778582 9.48491145 264.651242 17.7757018 262.53515625 26.1081543 C262.18624674 27.4930549 261.837659 28.87803661 261.48936462 30.26309204 C260.54784967 34.00342924 259.6019016 37.74263231 258.65515137 41.48164725 C257.65218783 45.44605859 256.65347528 49.41154067 255.65429688 53.37690735 C253.75314524 60.91925738 251.8483766 68.46068887 249.9422245 76.00177652 C247.18632461 86.90534666 244.43594313 97.81030902 241.68580627 108.71533394 C239.6539672 116.77158366 237.62027272 124.82735534 235.58227539 132.88204956 C232.24279298 146.08550622 228.9111261 159.28962584 225.6875 172.52197266 C225.21620447 174.4473461 224.74485335 176.37270594 224.2734375 178.29804993 C223.45421056 181.64589812 222.64841898 184.99654326 221.8515625 188.34977722 C221.50569539 189.76821578 221.1593783 191.18654472 220.8125 192.60473633 C220.53019531 193.78546219 220.24789062 194.96618805 219.95703125 196.18269348 C218.99840265 199.00470228 218.43630267 200.32085708 216 202 C212.95219905 202.32279665 210.1130443 202.46802719 207.0625 202.46875 C206.18601807 202.47636353 205.30953613 202.48397705 204.40649414 202.49182129 C202.55390268 202.50262381 200.70125031 202.50547477 198.84863281 202.50097656 C196.01003913 202.50000344 193.17414123 202.54163671 190.3359375 202.5859375 C188.53646398 202.59114385 186.73698105 202.5938327 184.9375 202.59375 C184.08744385 202.61014526 183.2373877 202.62654053 182.36157227 202.64343262 C181.57065186 202.6341272 180.77973145 202.62482178 179.96484375 202.61523438 C179.2699585 202.61728882 178.57507324 202.61934326 177.85913086 202.62145996 C176 202 176 202 174.36938477 199.87687683 C172.8678503 196.72237284 171.96996011 193.74563241 171.125 190.35473633 C170.95963053 189.7008641 170.79426105 189.04699186 170.62388039 188.37330532 C170.07489739 186.19473013 169.53754299 184.0134548 169 181.83203125 C168.60829676 180.26891261 168.21581109 178.70598986 167.82260132 177.14324951 C166.98024419 173.78942501 166.14281343 170.43442425 165.30926514 167.07839966 C163.99374848 161.78256336 162.66738361 156.48948704 161.33837891 151.19702148 C161.11473223 150.30630982 160.89108555 149.41559816 160.6606617 148.49789524 C160.20449615 146.68120498 159.74829695 144.86452316 159.29206467 143.04784966 C158.59658632 140.27704981 157.90215343 137.5059896 157.20791626 134.73487854 C152.54549516 116.13415685 147.78158586 97.55985502 142.99987793 78.98949814 C141.77571795 74.23491514 140.55260803 69.48006188 139.32947731 64.725214 C138.42443768 61.20702201 137.51907974 57.68891319 136.61264038 54.17108154 C136.29622589 52.94230286 135.9798114 51.71352417 135.65380859 50.44750977 C135.24465714 48.8596743 135.24465714 48.8596743 134.82723999 47.23976135 C133.87141956 43.496434 132.93444818 39.74871757 132 36 C128.65150837 49.04966101 125.6439105 62.16804915 122.67578125 75.30859375 C122.16509088 77.56407802 121.65427989 79.81953498 121.14335632 82.07496643 C120.07400497 86.79736062 119.00589357 91.52003297 117.9387207 96.24291992 C116.60080919 102.16368731 115.26018767 108.08383668 113.91861153 114.00377464 C112.86727633 118.64422486 111.81732951 123.28498846 110.7677269 127.92583084 C110.24917834 130.21789074 109.73023112 132.50986049 109.21088028 134.80173874 C106.52224596 146.67034236 103.86584143 158.54360946 101.32958984 170.44580078 C100.91558113 172.37761751 100.50153495 174.30942621 100.08744812 176.2412262 C99.32449154 179.80341014 98.57639444 183.36827174 97.83699036 186.93540955 C97.50145103 188.50921216 97.16543712 190.0829137 96.82885742 191.65649414 C96.68661177 192.36441919 96.54436611 193.07234425 96.39780998 193.80172157 C95.04846476 200.00306798 95.04846476 200.00306798 92 202 C89.02304383 202.31056874 86.25964505 202.4441512 83.28125 202.43359375 C82.42696411 202.4388356 81.57267822 202.44407745 80.69250488 202.44947815 C78.88697395 202.45589938 77.08140118 202.45456002 75.27587891 202.44604492 C72.50998683 202.43753074 69.74615691 202.46629979 66.98046875 202.49804688 C65.22656312 202.49965885 63.47265383 202.49908143 61.71875 202.49609375 C60.89056763 202.50732773 60.06238525 202.51856171 59.20910645 202.53013611 C53.47025162 202.46030093 53.47025162 202.46030093 51.394104 200.42808533 C49.60089611 197.30488809 48.70880313 194.10935675 47.82128906 190.64892578 C47.62324267 189.90691673 47.42519629 189.16490768 47.22114849 188.40041351 C46.56074594 185.91756118 45.91327723 183.43151856 45.265625 180.9453125 C44.79529407 179.16721391 44.32412817 177.38933599 43.85218811 175.61166382 C42.83910424 171.78892651 41.83163163 167.96477084 40.82852173 164.1394043 C39.24245053 158.09123148 37.64421339 152.04631818 36.04370117 146.00195312 C34.38220835 139.72502434 32.72153077 133.44788594 31.06510925 127.1696167 C25.69090514 106.80082503 20.25794866 86.44792533 14.81066895 66.09857178 C13.57730028 61.49063091 12.34574116 56.88220898 11.11493015 52.27358437 C10.18692128 48.79917918 9.25815731 45.32497614 8.32922173 41.85081863 C7.90505383 40.26397549 7.48114557 38.67706291 7.0575428 37.09006882 C6.66317602 35.61285783 6.26830299 34.13578189 5.87289333 32.65884972 C5.49420155 31.24297665 5.11710489 29.82667585 4.74172306 28.40992165 C3.72781884 24.60755204 2.65928492 20.82854606 1.52792358 17.05932617 C1.28692775 16.24108116 1.04593191 15.42283615 0.79763317 14.57979584 C0.33189328 13.00466494 -0.14544846 11.43290361 -0.63603497 9.86533356 C-2.19240908 4.55525065 -2.19240908 4.55525065 -1.13017273 1.48986816 C-0.75721573 0.99821167 -0.38425873 0.50655518 0 0 Z " fill="#449058" transform="translate(172,160)"/>
<path d="M0 0 C1.56137963 1.33138917 3.1041596 2.68498487 4.625 4.0625 C5.33269531 4.70058594 6.04039062 5.33867187 6.76953125 5.99609375 C29.2975596 27.40418187 36.18288904 59.70859465 36.953125 89.59375 C36.79070312 90.81578125 36.79070312 90.81578125 36.625 92.0625 C33.12145593 94.39819605 31.74846127 94.30997428 27.60762024 94.30300903 C26.34978729 94.30575836 25.09195435 94.30850769 23.79600525 94.31134033 C22.3995657 94.30426204 21.00312711 94.29699242 19.60668945 94.28955078 C18.1382854 94.28898672 16.66988078 94.28930312 15.20147705 94.29043579 C11.21206326 94.29101051 7.22276931 94.27923692 3.23338342 94.26528788 C-0.9346403 94.25280039 -5.10266664 94.25161158 -9.27070618 94.24923706 C-17.16485193 94.24301645 -25.0589424 94.2265978 -32.95306379 94.20653808 C-41.93965352 94.18419713 -50.92624587 94.17319019 -59.91285646 94.16314721 C-78.400269 94.14223207 -96.88763006 94.10704482 -115.375 94.0625 C-114.93334934 97.8801539 -114.47762821 101.69600621 -114.01953125 105.51171875 C-113.83396667 107.11799133 -113.83396667 107.11799133 -113.64465332 108.75671387 C-111.58876719 125.70563338 -106.33780675 142.23191701 -93.375 154.0625 C-77.90660199 165.59301965 -59.11048142 166.95472057 -40.51171875 164.56640625 C-28.95657609 161.91366922 -18.60500429 155.53852079 -12.1875 145.4375 C-8.90263365 139.58186869 -6.63017859 133.37057962 -4.375 127.0625 C-1.48531175 119.17281175 -1.48531175 119.17281175 -0.375 118.0625 C1.98898468 117.9617188 4.32311311 117.92276785 6.6875 117.9296875 C7.39398682 117.92873077 8.10047363 117.92777405 8.82836914 117.92678833 C10.32470793 117.92610667 11.82104967 117.92795995 13.31738281 117.93212891 C15.61530157 117.93747743 17.91302486 117.93218349 20.2109375 117.92578125 C21.66145877 117.92644203 23.11197991 117.9277232 24.5625 117.9296875 C25.2541626 117.92766327 25.9458252 117.92563904 26.65844727 117.92355347 C31.51004776 117.94754776 31.51004776 117.94754776 32.625 119.0625 C32.92368416 124.65825634 32.3241328 129.34828403 30.5625 134.6875 C30.33989502 135.37408691 30.11729004 136.06067383 29.88793945 136.76806641 C26.05727353 148.12292818 20.68318951 158.12808017 12.625 167.0625 C12.03332031 167.74699219 11.44164062 168.43148437 10.83203125 169.13671875 C-4.5234142 185.80179707 -27.9683032 193.25042226 -50.0625 194.4453125 C-75.69642004 195.23989493 -101.67524635 188.96500208 -121.0625 171.375 C-142.65277512 150.97729421 -151.48576815 123.40194577 -152.66015625 94.3125 C-153.40264655 62.77522467 -146.12048163 33.00841707 -124.74609375 9.125 C-118.86144715 2.96411821 -112.81834515 -1.81152316 -105.375 -5.9375 C-104.42882812 -6.47117188 -103.48265625 -7.00484375 -102.5078125 -7.5546875 C-71.62311905 -24.02106252 -27.96767009 -21.74315815 0 0 Z M-96.28125 23.74609375 C-107.87826286 36.57637104 -111.19669525 50.11154134 -114.375 67.0625 C-77.745 67.0625 -41.115 67.0625 -3.375 67.0625 C-3.375 50.00503031 -8.78267929 34.87841477 -20.7421875 22.47265625 C-41.30143784 3.65209622 -76.27673416 4.64757954 -96.28125 23.74609375 Z " fill="#449058" transform="translate(916.375,172.9375)"/>
<path d="M0 0 C5.16254 4.57253542 9.26940137 9.18759409 13 15 C12.98952637 14.25314941 12.97905273 13.50629883 12.96826172 12.73681641 C12.9267923 9.36624492 12.90070271 5.995727 12.875 2.625 C12.85824219 1.449375 12.84148437 0.27375 12.82421875 -0.9375 C12.81777344 -2.05898437 12.81132813 -3.18046875 12.8046875 -4.3359375 C12.79421387 -5.37282715 12.78374023 -6.4097168 12.77294922 -7.47802734 C13 -10 13 -10 15 -12 C17.56927031 -12.18729753 20.02873977 -12.25574642 22.59765625 -12.23046875 C23.72185219 -12.22978142 23.72185219 -12.22978142 24.86875916 -12.2290802 C26.45329369 -12.22605811 28.03782526 -12.21817306 29.62231445 -12.20581055 C32.05625858 -12.18754683 34.48982262 -12.18530089 36.92382812 -12.18554688 C38.46094081 -12.18063201 39.9980509 -12.17480382 41.53515625 -12.16796875 C42.26742935 -12.16685593 42.99970245 -12.1657431 43.75416565 -12.16459656 C48.88394762 -12.11605238 48.88394762 -12.11605238 50 -11 C50.09999457 -8.42250236 50.13440801 -5.87173507 50.12698364 -3.29370117 C50.12854363 -2.47684184 50.13010362 -1.65998251 50.13171089 -0.81836987 C50.13572432 1.94011511 50.13252993 4.69854579 50.12939453 7.45703125 C50.13074842 9.42597486 50.13252828 11.39491821 50.13470459 13.36386108 C50.1392804 18.7273406 50.13748876 24.09080098 50.1343255 29.45428085 C50.13180266 35.05391239 50.13413923 40.65354223 50.13571167 46.25317383 C50.13753359 55.65869442 50.13512648 65.06420716 50.13037109 74.46972656 C50.12492843 85.36071177 50.12669107 96.25167825 50.1321975 107.142663 C50.136728 116.47510724 50.13737949 125.80754583 50.13475883 135.13999081 C50.13319571 140.72188054 50.13300325 146.30376146 50.13629532 151.88565063 C50.13917312 157.13207505 50.13720003 162.37847522 50.13140106 167.624897 C50.13007297 169.55632105 50.1304684 171.48774712 50.13266373 173.41917038 C50.13537332 176.04404202 50.13199646 178.66883465 50.12698364 181.29370117 C50.12921436 182.06829587 50.13144509 182.84289057 50.13374341 183.64095783 C50.11414984 188.88585016 50.11414984 188.88585016 49 190 C46.49075847 190.10087212 44.00963616 190.13972032 41.5 190.1328125 C40.74912109 190.13376923 39.99824219 190.13472595 39.22460938 190.13571167 C37.63411373 190.13639338 36.04361533 190.13453972 34.453125 190.13037109 C32.01035345 190.12502267 29.56776579 190.13031634 27.125 190.13671875 C25.58333293 190.13605797 24.04166597 190.1347768 22.5 190.1328125 C21.76458984 190.13483673 21.02917969 190.13686096 20.27148438 190.13894653 C15.11495161 190.11495161 15.11495161 190.11495161 14 189 C13.84174742 187.00217874 13.74880829 184.99911166 13.68359375 182.99609375 C13.62075195 181.17368164 13.62075195 181.17368164 13.55664062 179.31445312 C13.51732422 178.03505859 13.47800781 176.75566406 13.4375 175.4375 C13.39431641 174.15423828 13.35113281 172.87097656 13.30664062 171.54882812 C13.200152 168.36600147 13.09814038 165.18309326 13 162 C12.53674316 162.60255615 12.07348633 163.2051123 11.59619141 163.82592773 C10.97921387 164.62458252 10.36223633 165.4232373 9.7265625 166.24609375 C9.11893066 167.0342749 8.51129883 167.82245605 7.88525391 168.63452148 C-2.79155351 182.0309974 -18.66254029 191.12934362 -35.66796875 193.71875 C-58.36508481 195.63456753 -80.33119614 192.67641576 -98.59765625 177.8984375 C-101.14076035 175.66602937 -103.58705182 173.37211996 -106 171 C-106.62777344 170.38511719 -107.25554688 169.77023437 -107.90234375 169.13671875 C-120.56665938 155.72575413 -127.40893674 136.76229664 -131 119 C-131.226875 117.89011719 -131.45375 116.78023437 -131.6875 115.63671875 C-134.85553161 96.56252842 -134.3504586 75.84056874 -130 57 C-129.83371094 56.278125 -129.66742187 55.55625 -129.49609375 54.8125 C-126.83204425 43.76162801 -122.51228361 33.91111343 -117 24 C-116.46761719 23.01386719 -115.93523438 22.02773437 -115.38671875 21.01171875 C-105.89483884 4.73655989 -89.909831 -7.3912273 -72 -13 C-46.98002176 -19.29994991 -20.561053 -16.38319027 0 0 Z M-74 23 C-74.63550781 23.52335937 -75.27101563 24.04671875 -75.92578125 24.5859375 C-92.18480597 39.36686906 -95.09132006 63.90900852 -96.12890625 84.56640625 C-96.6816047 108.11136025 -92.66509947 135.32105418 -76 153 C-75.38382813 153.65742188 -74.76765625 154.31484375 -74.1328125 154.9921875 C-65.26905562 163.56171178 -52.81987846 166.88961375 -40.75 167.3125 C-26.96406152 166.98194858 -14.00185161 162.97044919 -3.75 153.5625 C12.31347436 136.23560631 15.22863755 112.71267065 15.25 90.0625 C15.25100708 89.32456207 15.25201416 88.58662415 15.25305176 87.82632446 C15.2317936 64.82843336 11.57747817 41.27425483 -5 24 C-24.28927317 7.48888729 -54.42602477 6.71722415 -74 23 Z M14 159 C15 161 15 161 15 161 Z " fill="#449058" transform="translate(1096,172)"/>
<path d="M0 0 C15.42485254 14.29963533 21.8088688 35.33978983 23.3203125 55.8203125 C23.48400789 60.2880782 23.52460608 64.75417175 23.55737305 69.22460938 C23.57048523 70.52983551 23.58359741 71.83506165 23.59710693 73.17984009 C23.6323949 76.72882559 23.66179134 80.27783519 23.68949866 83.82688713 C23.70708465 86.04579997 23.72594713 88.26469827 23.74524879 90.4835968 C23.81255214 98.22763869 23.87495681 105.97170261 23.93286133 113.71582031 C23.98696436 120.93356826 24.05208943 128.15116153 24.12219971 135.36877012 C24.18199404 141.5752708 24.23407639 147.78180508 24.28012687 153.98842287 C24.30774173 157.69176205 24.33853432 161.39500904 24.37714195 165.09825134 C24.41976633 169.21585989 24.44638468 173.33341895 24.47143555 177.45117188 C24.49389091 179.29631882 24.49389091 179.29631882 24.51679993 181.17874146 C24.52101959 182.29453583 24.52523926 183.4103302 24.52958679 184.55993652 C24.5375059 185.53326683 24.54542501 186.50659714 24.5535841 187.5094223 C24.3203125 189.8203125 24.3203125 189.8203125 22.3203125 191.8203125 C19.7625877 192.00766057 17.31518839 192.07605393 14.7578125 192.05078125 C14.01072021 192.05032303 13.26362793 192.04986481 12.49389648 192.0493927 C10.91355807 192.04637025 9.33322264 192.03848414 7.75292969 192.02612305 C5.3299711 192.0078852 2.90739501 192.00561323 0.484375 192.00585938 C-1.04948248 192.00094342 -2.58333736 191.99511476 -4.1171875 191.98828125 C-4.84429932 191.98716843 -5.57141113 191.9860556 -6.32055664 191.98490906 C-11.44754065 191.93638593 -11.44754065 191.93638593 -13.6796875 190.8203125 C-13.67692212 190.15476852 -13.67415674 189.48922455 -13.67130756 188.80351257 C-13.60479256 172.54146833 -13.55528362 156.27946768 -13.52425098 140.01731873 C-13.50884148 132.15277188 -13.4878665 124.28831633 -13.45336914 116.42382812 C-13.42328411 109.5619109 -13.40406962 102.70005986 -13.39742202 95.8380785 C-13.39354177 92.21125394 -13.38454941 88.58461859 -13.36249733 84.95785522 C-12.6098381 58.55443115 -12.6098381 58.55443115 -20.6796875 33.8203125 C-21.2571875 32.7890625 -21.8346875 31.7578125 -22.4296875 30.6953125 C-28.71130229 22.66880472 -35.76508854 18.62412092 -45.5546875 16.0703125 C-58.78803594 15.01164462 -71.31625393 16.39000001 -82.11328125 24.69140625 C-90.70676557 32.02922163 -96.8175787 40.30271619 -101.4296875 50.5703125 C-101.69934326 51.16465088 -101.96899902 51.75898926 -102.24682617 52.37133789 C-103.14640878 54.4956835 -103.91205816 56.64438953 -104.6796875 58.8203125 C-105.18532227 60.19495415 -105.18532227 60.19495415 -105.70117188 61.59736633 C-109.80478413 74.48296243 -109.18402511 87.48235558 -109.0703125 100.87890625 C-109.06283914 103.48063214 -109.05715139 106.08236372 -109.05316162 108.68409729 C-109.03953569 114.79300658 -109.00812666 120.90157851 -108.96776366 127.01036173 C-108.92276021 133.97546892 -108.90098778 140.9405915 -108.88098192 147.90580833 C-108.83938352 162.21079904 -108.76921183 176.51554531 -108.6796875 190.8203125 C-111.72496969 192.34295359 -114.90113996 191.98316787 -118.2421875 191.98828125 C-118.98927979 191.99160965 -119.73637207 191.99493805 -120.50610352 191.99836731 C-122.08641951 192.00343216 -123.66674621 192.00577577 -125.24707031 192.00561523 C-127.67009993 192.00780384 -130.09267586 192.02596951 -132.515625 192.04492188 C-134.0494776 192.04785542 -135.58333238 192.04984048 -137.1171875 192.05078125 C-137.84429932 192.05796677 -138.57141113 192.06515228 -139.32055664 192.07255554 C-144.45085947 192.04914053 -144.45085947 192.04914053 -146.6796875 189.8203125 C-146.86289298 187.1883988 -146.9199307 184.66359152 -146.88896179 182.03172302 C-146.88729266 181.21809282 -146.88562352 180.40446262 -146.8839038 179.56617695 C-146.87579246 176.82450622 -146.85324427 174.083141 -146.83081055 171.34155273 C-146.82202637 169.38231767 -146.81411225 167.42307854 -146.80700684 165.46383667 C-146.78505158 160.13133555 -146.75049477 154.79898195 -146.71347785 149.4665668 C-146.67665133 143.89767221 -146.65038322 138.32872731 -146.62275696 132.75978088 C-146.5747712 123.40726929 -146.5189958 114.05482955 -146.45825195 104.70239258 C-146.38797601 93.87334589 -146.32817662 83.04428207 -146.27439278 72.21514171 C-146.21714357 60.70880749 -146.15232276 49.20252506 -146.08523583 37.69624448 C-146.06635835 34.37046797 -146.04889922 31.04468648 -146.031744 27.71890068 C-146.00445849 22.50280378 -145.97211839 17.28676214 -145.93578339 12.07072067 C-145.92318438 10.15059386 -145.91229293 8.23045501 -145.90318489 6.31030846 C-145.89051169 3.70078976 -145.87176606 1.09138633 -145.85136414 -1.51808167 C-145.84902179 -2.28810329 -145.84667944 -3.05812492 -145.84426612 -3.85148054 C-145.79386666 -9.06550834 -145.79386666 -9.06550834 -144.6796875 -10.1796875 C-142.24308304 -10.28051514 -139.83544049 -10.31941353 -137.3984375 -10.3125 C-136.66975464 -10.31345673 -135.94107178 -10.31441345 -135.19030762 -10.31539917 C-133.6468904 -10.31608085 -132.10347033 -10.31422738 -130.56005859 -10.31005859 C-128.1897135 -10.30471012 -125.81955791 -10.31000392 -123.44921875 -10.31640625 C-121.95312458 -10.31574547 -120.45703053 -10.3144643 -118.9609375 -10.3125 C-118.24740112 -10.31452423 -117.53386475 -10.31654846 -116.79870605 -10.31863403 C-111.79463941 -10.29463941 -111.79463941 -10.29463941 -110.6796875 -9.1796875 C-110.52109908 -7.03582093 -110.42839452 -4.88701912 -110.36328125 -2.73828125 C-110.32138672 -1.43310547 -110.27949219 -0.12792969 -110.23632812 1.21679688 C-110.19651142 2.6054658 -110.15679925 3.99413772 -110.1171875 5.3828125 C-110.07400761 6.77540433 -110.0303935 8.16798278 -109.98632812 9.56054688 C-109.87982874 12.98036051 -109.77781827 16.40025013 -109.6796875 19.8203125 C-109.14424316 19.14556885 -108.60879883 18.4708252 -108.05712891 17.77563477 C-107.34733887 16.88416748 -106.63754883 15.9927002 -105.90625 15.07421875 C-105.20580566 14.1932251 -104.50536133 13.31223145 -103.78369141 12.40454102 C-91.75037634 -2.37529653 -75.07613681 -11.5720858 -56.3046875 -14.6171875 C-35.92675072 -16.67426629 -16.24929036 -13.2173528 0 0 Z " fill="#449058" transform="translate(661.6796875,170.1796875)"/>
<path d="M0 0 C0.91257568 0.00604248 1.82515137 0.01208496 2.76538086 0.01831055 C23.77658862 0.32346408 23.77658862 0.32346408 28.8125 5.25 C29.26660156 7.88549805 29.26660156 7.88549805 29.203125 11.01171875 C29.19023438 12.12998047 29.17734375 13.24824219 29.1640625 14.40039062 C29.13054687 15.56763672 29.09703125 16.73488281 29.0625 17.9375 C29.04445313 19.11634766 29.02640625 20.29519531 29.0078125 21.50976562 C28.96061859 24.42398926 28.89479077 27.33659031 28.8125 30.25 C24.66583909 31.18594683 21.69989737 31.08206203 17.5 30.3125 C8.62254784 28.85619886 1.25811146 28.63253603 -7.1875 32.25 C-13.78305111 37.2683541 -16.5496191 44.57924061 -17.7800293 52.56689453 C-18.3169488 57.42008063 -18.52810191 62.26774935 -18.73828125 67.14453125 C-18.78231079 68.11765259 -18.82634033 69.09077393 -18.8717041 70.09338379 C-18.97930163 72.47882839 -19.08450195 74.86435312 -19.1875 77.25 C-18.63039841 77.24555878 -18.07329681 77.24111755 -17.49931335 77.23654175 C-11.70830853 77.19234265 -5.91735151 77.16214786 -0.1262207 77.14013672 C2.03590847 77.13007049 4.198024 77.11641646 6.36010742 77.09912109 C9.46536625 77.07490022 12.5704453 77.06352319 15.67578125 77.0546875 C16.64461746 77.04436493 17.61345367 77.03404236 18.61164856 77.02340698 C19.5123558 77.02325592 20.41306305 77.02310486 21.34106445 77.02294922 C22.53020195 77.01628738 22.53020195 77.01628738 23.74336243 77.00949097 C25.8125 77.25 25.8125 77.25 28.8125 79.25 C29.20068359 81.74023437 29.20068359 81.74023437 29.2109375 84.84375 C29.21480469 85.95621094 29.21867187 87.06867188 29.22265625 88.21484375 C29.21105469 89.38144531 29.19945312 90.54804688 29.1875 91.75 C29.19910156 92.91660156 29.21070313 94.08320313 29.22265625 95.28515625 C29.21878906 96.39761719 29.21492188 97.51007813 29.2109375 98.65625 C29.20755371 99.68041016 29.20416992 100.70457031 29.20068359 101.75976562 C29.00853271 102.99243164 29.00853271 102.99243164 28.8125 104.25 C25.65524381 106.35483746 24.93875389 106.4972059 21.34106445 106.47705078 C20.44035721 106.47689972 19.53964996 106.47674866 18.61164856 106.47659302 C17.64281235 106.46627045 16.67397614 106.45594788 15.67578125 106.4453125 C14.18391548 106.44106766 14.18391548 106.44106766 12.66191101 106.43673706 C9.4828187 106.42553489 6.30400728 106.40043014 3.125 106.375 C0.97070719 106.36497025 -1.18359003 106.35584439 -3.33789062 106.34765625 C-8.62118972 106.32559546 -13.90432479 106.29211756 -19.1875 106.25 C-19.17497192 107.40191833 -19.16244385 108.55383667 -19.14953613 109.74066162 C-18.08382737 208.10277483 -18.08382737 208.10277483 -18.06411743 248.51405334 C-18.06249748 250.69089198 -18.05894396 252.86772023 -18.05493164 255.04455566 C-18.04815666 259.0075807 -18.05042518 262.9705641 -18.0546875 266.93359375 C-18.05270355 268.08574875 -18.0507196 269.23790375 -18.04867554 270.42497253 C-18.05178741 271.45447525 -18.05489929 272.48397797 -18.05810547 273.54467773 C-18.05890106 274.43678452 -18.05969666 275.3288913 -18.06051636 276.24803162 C-18.1875 278.25 -18.1875 278.25 -19.1875 279.25 C-21.75771843 279.35094226 -24.30048032 279.38971237 -26.87109375 279.3828125 C-28.02714867 279.38424759 -28.02714867 279.38424759 -29.20655823 279.38571167 C-30.83993613 279.38639349 -32.47331673 279.38453909 -34.10668945 279.38037109 C-36.61090172 279.37503007 -39.11493403 279.38031224 -41.61914062 279.38671875 C-43.2031254 279.38605783 -44.78711006 279.38477637 -46.37109375 279.3828125 C-47.1232164 279.38483673 -47.87533905 279.38686096 -48.6502533 279.38894653 C-53.95758751 279.36495624 -53.95758751 279.36495624 -56.1875 278.25 C-56.30727094 245.19414171 -55.99790749 212.13961616 -55.74211788 179.08507395 C-55.68056103 171.12316209 -55.62060299 163.1612384 -55.56074238 155.19931364 C-55.43803549 138.88286254 -55.31343619 122.5664265 -55.1875 106.25 C-56.05552246 106.26047363 -56.92354492 106.27094727 -57.81787109 106.28173828 C-61.03449528 106.31579716 -64.25102767 106.34088767 -67.46777344 106.35986328 C-68.86070781 106.36992877 -70.25362102 106.38358234 -71.64648438 106.40087891 C-73.6470436 106.4251022 -75.64775615 106.43540814 -77.6484375 106.4453125 C-78.85290527 106.45578613 -80.05737305 106.46625977 -81.29833984 106.47705078 C-84.1875 106.25 -84.1875 106.25 -86.1875 104.25 C-86.41455078 101.63623047 -86.41455078 101.63623047 -86.3828125 98.3671875 C-86.37636719 97.20058594 -86.36992188 96.03398437 -86.36328125 94.83203125 C-86.34652344 93.60871094 -86.32976562 92.38539063 -86.3125 91.125 C-86.30347656 89.89394531 -86.29445313 88.66289062 -86.28515625 87.39453125 C-86.26152548 84.34616185 -86.22858054 81.29817618 -86.1875 78.25 C-83.31731559 76.81490779 -80.85206277 77.13841494 -77.6484375 77.15234375 C-75.69550781 77.15717773 -75.69550781 77.15717773 -73.703125 77.16210938 C-72.32291601 77.17046534 -70.94270768 77.17893029 -69.5625 77.1875 C-68.17448074 77.19251499 -66.78645978 77.1970779 -65.3984375 77.20117188 C-61.99474868 77.21299024 -58.59114561 77.22946566 -55.1875 77.25 C-55.19797363 76.59104736 -55.20844727 75.93209473 -55.21923828 75.25317383 C-55.54073634 51.94863413 -54.86991004 31.43189022 -38.3515625 13.2265625 C-27.96792732 3.19342977 -13.99315458 -0.14890467 0 0 Z " fill="#449058" transform="translate(1247.1875,82.75)"/>
<path d="M0 0 C0.72711182 0.00404846 1.45422363 0.00809692 2.20336914 0.01226807 C2.95046143 0.01035461 3.69755371 0.00844116 4.46728516 0.00646973 C6.04761085 0.00510809 7.62794772 0.00880307 9.20825195 0.01715088 C11.63135836 0.02785107 14.05372337 0.01725527 16.47680664 0.00445557 C18.01066245 0.00577717 19.54451779 0.00833957 21.07836914 0.01226807 C21.80548096 0.0082196 22.53259277 0.00417114 23.28173828 0 C28.41094553 0.04796946 28.41094553 0.04796946 30.64086914 2.27789307 C30.84341431 4.34066772 30.84341431 4.34066772 30.77612305 6.91119385 C30.75595123 7.87203888 30.73577942 8.83288391 30.71499634 9.82284546 C30.66670181 11.38227371 30.66670181 11.38227371 30.61743164 12.97320557 C30.57989273 14.56707596 30.57989273 14.56707596 30.54159546 16.19314575 C30.45923272 19.5967116 30.3627057 22.99971119 30.26586914 26.40289307 C30.20764625 28.70625513 30.15034264 31.00964063 30.09399414 33.31304932 C29.95362982 38.96831266 29.80162567 44.62317466 29.64086914 50.27789307 C30.23777557 50.27345184 30.83468201 50.26901062 31.44967651 50.26443481 C37.64603285 50.22028726 43.84234472 50.19006247 50.03881836 50.16802979 C52.35328993 50.15795415 54.66774873 50.14429332 56.98217773 50.12701416 C60.30333607 50.10283442 63.62432655 50.09142576 66.94555664 50.08258057 C67.98517548 50.072258 69.02479431 50.06193542 70.09591675 50.05130005 C71.05676178 50.05114899 72.01760681 50.05099792 73.00756836 50.05084229 C74.27997879 50.04418045 74.27997879 50.04418045 75.57809448 50.03738403 C77.64086914 50.27789307 77.64086914 50.27789307 79.64086914 52.27789307 C79.8996582 54.76812744 79.8996582 54.76812744 79.90649414 57.87164307 C79.91036133 59.54033447 79.91036133 59.54033447 79.91430664 61.24273682 C79.90657227 62.40933838 79.89883789 63.57593994 79.89086914 64.77789307 C79.9024707 66.52779541 79.9024707 66.52779541 79.91430664 68.31304932 C79.91172852 69.42551025 79.90915039 70.53797119 79.90649414 71.68414307 C79.90423828 72.70830322 79.90198242 73.73246338 79.8996582 74.78765869 C79.64086914 77.27789307 79.64086914 77.27789307 77.64086914 79.27789307 C75.57809448 79.5184021 75.57809448 79.5184021 73.00756836 79.50494385 C71.56630081 79.50471725 71.56630081 79.50471725 70.09591675 79.50448608 C69.05629791 79.49416351 68.01667908 79.48384094 66.94555664 79.47320557 C65.88297638 79.47037567 64.82039612 79.46754578 63.72561646 79.46463013 C60.32225415 79.45340946 56.91915228 79.42830143 53.51586914 79.40289307 C51.21248752 79.39286571 48.90910178 79.38373943 46.60571289 79.37554932 C40.95067569 79.353464 35.29579101 79.31996795 29.64086914 79.27789307 C29.72493062 95.27286409 29.82012284 111.26772473 29.92839622 127.26254845 C29.97841807 134.69000587 30.02486175 142.11745283 30.06274414 149.54498291 C30.0957897 156.02235466 30.1356893 162.49964264 30.1836592 168.97692168 C30.20879997 172.40337641 30.23061711 175.82977647 30.2442131 179.25629807 C30.26115536 183.09092878 30.29021029 186.92529437 30.32202148 190.75982666 C30.32418167 191.88336548 30.32634186 193.0069043 30.3285675 194.16448975 C30.41993947 202.81675986 30.83809606 211.80691272 35.64086914 219.27789307 C41.73169277 225.04814703 47.22842749 225.61069945 55.26586914 225.52789307 C56.15580566 225.52475098 57.04574219 225.52160889 57.96264648 225.51837158 C63.7068038 225.44663507 69.13946288 224.96987281 74.74243164 223.61773682 C76.64086914 223.27789307 76.64086914 223.27789307 78.64086914 224.27789307 C78.64086914 232.52789307 78.64086914 240.77789307 78.64086914 249.27789307 C62.92095365 257.13785081 44.0541137 258.26309983 27.26196289 253.27398682 C14.64666325 248.84474488 5.70740828 241.36270204 -0.54663086 229.59039307 C-6.95766483 216.13057828 -7.53515015 202.22247376 -7.45288086 187.55133057 C-7.44929565 186.28235931 -7.44571045 185.01338806 -7.4420166 183.70596313 C-7.37500165 164.48134545 -7.12065659 145.25706329 -6.89556885 126.03381348 C-6.83399137 120.74279175 -6.77439136 115.45174773 -6.71459961 110.16070557 C-6.59798956 99.86641266 -6.47927506 89.57214529 -6.35913086 79.27789307 C-7.43396729 79.28574829 -7.43396729 79.28574829 -8.53051758 79.29376221 C-11.76504648 79.31449973 -14.99956142 79.3275429 -18.23413086 79.34039307 C-19.92602539 79.35296143 -19.92602539 79.35296143 -21.65209961 79.36578369 C-22.7284668 79.36900635 -23.80483398 79.372229 -24.91381836 79.37554932 C-25.90881348 79.38078613 -26.90380859 79.38602295 -27.92895508 79.39141846 C-30.35913086 79.27789307 -30.35913086 79.27789307 -32.35913086 78.27789307 C-32.38799424 73.79873979 -32.40588273 69.31961015 -32.42163086 64.84039307 C-32.43000977 63.56099854 -32.43838867 62.281604 -32.44702148 60.96343994 C-32.45024414 59.74849854 -32.4534668 58.53355713 -32.45678711 57.28179932 C-32.46202393 56.15588379 -32.46726074 55.02996826 -32.47265625 53.86993408 C-32.35913086 51.27789307 -32.35913086 51.27789307 -31.35913086 50.27789307 C-29.50543475 50.19051662 -27.64845545 50.17091154 -25.79272461 50.18023682 C-24.66801758 50.18345947 -23.54331055 50.18668213 -22.38452148 50.19000244 C-21.20051758 50.19838135 -20.01651367 50.20676025 -18.79663086 50.21539307 C-17.60875977 50.21990479 -16.42088867 50.2244165 -15.19702148 50.22906494 C-12.2510086 50.24089632 -9.30509405 50.2573802 -6.35913086 50.27789307 C-6.37610016 49.68098663 -6.39306946 49.0840802 -6.41055298 48.46908569 C-6.58470383 42.27298568 -6.74464998 36.07663603 -6.89624023 29.87994385 C-6.95474589 27.56539507 -7.01690947 25.25093582 -7.08276367 22.93658447 C-7.17663236 19.61562395 -7.25746851 16.29456673 -7.33569336 12.97320557 C-7.36788971 11.93358673 -7.40008606 10.8939679 -7.43325806 9.82284546 C-7.45342987 8.86200043 -7.47360168 7.9011554 -7.49438477 6.91119385 C-7.51659088 6.06292023 -7.538797 5.21464661 -7.56167603 4.34066772 C-7.10416753 -0.31872231 -3.91588178 0.03662218 0 0 Z " fill="#449058" transform="translate(85.359130859375,109.72210693359375)"/>
<path d="M0 0 C0.73541016 0.00202423 1.47082031 0.00404846 2.22851562 0.00613403 C2.97939453 0.00517731 3.73027344 0.00422058 4.50390625 0.00323486 C6.09440189 0.00255315 7.6849003 0.00440682 9.27539062 0.00857544 C11.71816217 0.01392386 14.16074984 0.00863019 16.60351562 0.00222778 C18.1451827 0.00288857 19.68684966 0.00416973 21.22851562 0.00613403 C21.96392578 0.0041098 22.69933594 0.00208557 23.45703125 0 C28.61356402 0.02399493 28.61356402 0.02399493 29.72851562 1.13894653 C29.82608917 2.59233878 29.85407023 4.05046202 29.85435677 5.50712585 C29.85696451 6.4559838 29.85957226 7.40484175 29.86225903 8.38245296 C29.86002831 9.43719594 29.85779759 10.49193892 29.85549927 11.5786438 C29.85705926 12.6895189 29.85861925 13.800394 29.86022651 14.94493198 C29.86424175 18.69841875 29.86104484 22.45186566 29.85791016 26.20535278 C29.85926397 28.88364787 29.86100736 31.56194013 29.86322021 34.24023438 C29.86767864 40.7783471 29.86670113 47.31644838 29.86380757 53.85456157 C29.86155382 59.16583904 29.8612409 64.4771133 29.86233139 69.78839111 C29.86248462 70.54286516 29.86263786 71.2973392 29.86279573 72.0746761 C29.86311544 73.60713283 29.86343965 75.13958957 29.86376832 76.6720463 C29.86662333 91.05899163 29.86333578 105.44593061 29.85796796 119.83287489 C29.8534999 132.19108686 29.85427583 144.54928943 29.85888672 156.90750122 C29.86423212 171.24119058 29.86634863 185.57487435 29.86327446 199.90856457 C29.86295589 201.4355437 29.86264152 202.96252282 29.86233139 204.48950195 C29.86209998 205.61660539 29.86209998 205.61660539 29.86186389 206.7664786 C29.86099863 212.074484 29.8624618 217.38248587 29.86481094 222.69049072 C29.86760877 229.15471219 29.86687106 235.6189215 29.8615302 242.08314157 C29.85889294 245.38446482 29.85842228 248.68576346 29.86117935 251.98708725 C29.86388769 255.55782856 29.86051362 259.12851172 29.85549927 262.69924927 C29.85772999 263.75399224 29.85996071 264.80873522 29.86225903 265.8954401 C29.85834741 267.31872702 29.85834741 267.31872702 29.85435677 268.77076721 C29.85419441 269.59611686 29.85403206 270.4214665 29.85386479 271.27182674 C29.72851562 273.13894653 29.72851562 273.13894653 28.72851562 274.13894653 C26.21927409 274.23981865 23.73815179 274.27866686 21.22851562 274.27175903 C20.47763672 274.27271576 19.72675781 274.27367249 18.953125 274.2746582 C17.36262936 274.27533991 15.77213095 274.27348625 14.18164062 274.26931763 C11.73886908 274.2639692 9.29628141 274.26926287 6.85351562 274.27566528 C5.31184855 274.2750045 3.77018159 274.27372333 2.22851562 274.27175903 C1.49310547 274.27378326 0.75769531 274.2758075 0 274.27789307 C-5.15653277 274.25389814 -5.15653277 274.25389814 -6.27148438 273.13894653 C-6.36905792 271.68555429 -6.39703898 270.22743105 -6.39732552 268.77076721 C-6.40123714 267.34748029 -6.40123714 267.34748029 -6.40522778 265.8954401 C-6.40299706 264.84069713 -6.40076634 263.78595415 -6.39846802 262.69924927 C-6.40002801 261.58837417 -6.401588 260.47749907 -6.40319526 259.33296108 C-6.4072105 255.57947432 -6.40401359 251.82602741 -6.40087891 248.07254028 C-6.40223272 245.3942452 -6.40397611 242.71595294 -6.40618896 240.03765869 C-6.41064739 233.49954596 -6.40966988 226.96144468 -6.40677632 220.4233315 C-6.40452257 215.11205402 -6.40420965 209.80077977 -6.40530014 204.48950195 C-6.40545337 203.73502791 -6.40560661 202.98055386 -6.40576448 202.20321697 C-6.40608419 200.67076023 -6.4064084 199.1383035 -6.40673707 197.60584676 C-6.40959208 183.21890143 -6.40630453 168.83196246 -6.40093671 154.44501817 C-6.39646865 142.08680621 -6.39724458 129.72860364 -6.40185547 117.37039185 C-6.40720087 103.03670249 -6.40931738 88.70301871 -6.40624321 74.3693285 C-6.40592464 72.84234937 -6.40561027 71.31537024 -6.40530014 69.78839111 C-6.40514586 69.03698882 -6.40499159 68.28558653 -6.40483264 67.51141447 C-6.40396738 62.20340907 -6.40543055 56.8954072 -6.40777969 51.58740234 C-6.41057752 45.12318088 -6.40983981 38.65897156 -6.40449895 32.1947515 C-6.40186169 28.89342825 -6.40139103 25.59212961 -6.4041481 22.29080582 C-6.40685644 18.72006451 -6.40348237 15.14938134 -6.39846802 11.5786438 C-6.40069874 10.52390082 -6.40292946 9.46915785 -6.40522778 8.38245296 C-6.40262003 7.43359502 -6.40001229 6.48473707 -6.39732552 5.50712585 C-6.39716316 4.68177621 -6.39700081 3.85642656 -6.39683354 3.00606632 C-6.12974371 -0.97233045 -3.33835885 0.01553441 0 0 Z " fill="#449058" transform="translate(715.271484375,87.86105346679688)"/>
<path d="M0 0 C0.72489624 -0.00095673 1.44979248 -0.00191345 2.19665527 -0.00289917 C3.72989997 -0.00357993 5.26314755 -0.00173286 6.79638672 0.00244141 C9.14687558 0.00779116 11.49717335 0.00249297 13.84765625 -0.00390625 C15.33593792 -0.00324545 16.82421948 -0.00196425 18.3125 0 C19.01773804 -0.00202423 19.72297607 -0.00404846 20.44958496 -0.00613403 C25.42632514 0.01785007 25.42632514 0.01785007 27.65625 1.1328125 C27.67957577 27.1923014 27.69722759 53.25178875 27.70806217 79.31128597 C27.71322582 91.41024562 27.72026981 103.5091988 27.73168945 115.6081543 C27.74163421 126.14948056 27.74810293 136.69080214 27.75033849 147.23213297 C27.75164596 152.81739384 27.75473404 158.40264129 27.76198006 163.98789787 C27.76873699 169.23840898 27.77086763 174.48890108 27.76935768 179.73941612 C27.76963416 181.67245334 27.77164121 183.60549115 27.77545547 185.53852463 C27.78038762 188.16563511 27.77925007 190.79267259 27.77650452 193.41978455 C27.77941736 194.19506136 27.7823302 194.97033818 27.78533131 195.76910824 C27.77037121 201.01869129 27.77037121 201.01869129 26.65625 202.1328125 C24.07435554 202.23372725 21.519785 202.27252749 18.9375 202.265625 C17.77788757 202.26706009 17.77788757 202.26706009 16.59484863 202.26852417 C14.95727456 202.26920591 13.31969781 202.26735207 11.68212891 202.26318359 C9.16693079 202.25783521 6.65191127 202.26312876 4.13671875 202.26953125 C2.54947877 202.26887047 0.9622389 202.2675893 -0.625 202.265625 C-1.38228394 202.26764923 -2.13956787 202.26967346 -2.9197998 202.27175903 C-8.22879868 202.24776382 -8.22879868 202.24776382 -9.34375 201.1328125 C-9.44152783 198.55301983 -9.47369888 196.00001922 -9.46400452 193.41978455 C-9.46485894 192.60221965 -9.46571337 191.78465475 -9.46659368 190.94231516 C-9.46825099 188.18149239 -9.46272304 185.42072935 -9.45727539 182.65991211 C-9.45699355 180.68934633 -9.4571512 178.71878044 -9.4577179 176.74821472 C-9.45800598 171.38066741 -9.4521075 166.01314223 -9.44514394 160.64560008 C-9.4389122 155.04283303 -9.43830674 149.44006552 -9.43711853 143.83729553 C-9.43400468 133.21961692 -9.42579057 122.60194854 -9.41576904 111.98427445 C-9.40460957 99.89983926 -9.39909787 87.81540359 -9.39407361 75.73096454 C-9.383608 50.86490817 -9.36600753 25.99886091 -9.34375 1.1328125 C-6.35092264 -0.36360118 -3.28096394 -0.00941729 0 0 Z " fill="#449058" transform="translate(462.34375,159.8671875)"/>
<path d="M0 0 C4.95 0 9.9 0 15 0 C16.57367724 3.93419309 17.61674785 7.29889829 18.515625 11.390625 C18.79446533 12.64593018 19.07330566 13.90123535 19.3605957 15.19458008 C19.50566559 15.85616119 19.65073547 16.51774231 19.80020142 17.19937134 C20.56491205 20.68568188 21.34299326 24.16900117 22.12109375 27.65234375 C22.35635017 28.7071418 22.35635017 28.7071418 22.59635925 29.7832489 C24.31942435 37.47920651 26.16790731 45.14420785 28.04589844 52.80371094 C32 69.02723907 32 69.02723907 32 75 C32.66 75 33.32 75 34 75 C34.08781738 74.37883301 34.17563477 73.75766602 34.26611328 73.11767578 C35.88396299 62.57312401 38.41978198 52.24941213 40.875 41.875 C41.74902202 38.16444383 42.62073591 34.45334806 43.4921875 30.7421875 C43.70421814 29.84216003 43.91624878 28.94213257 44.13470459 28.01483154 C45.73995648 21.17848342 47.27628779 14.32839587 48.7507019 7.46261597 C49.89312825 2.2137435 49.89312825 2.2137435 51 0 C57.6 0 64.2 0 71 0 C78.88127176 32.26823427 78.88127176 32.26823427 82.33764648 47.68334961 C85.23209721 60.96128802 85.23209721 60.96128802 89 74 C93.67511358 53.81034085 98.3387555 33.6186441 102.87915039 13.39819336 C103.27928345 11.61747437 103.27928345 11.61747437 103.6875 9.80078125 C103.91824219 8.77122314 104.14898438 7.74166504 104.38671875 6.6809082 C104.897603 4.44761999 105.44435628 2.22257487 106 0 C110.95 0 115.9 0 121 0 C117.67360002 15.48556442 113.874404 30.844945 110.02709961 46.20727539 C109.11318395 49.85709209 108.20468797 53.50823436 107.29756832 57.15974522 C106.58881046 60.00957388 105.87676191 62.85857283 105.16378975 65.70734978 C104.82742704 67.05330864 104.49215376 68.39954032 104.15806389 69.74606514 C102.37097951 76.94218315 100.4644946 84.00488525 98 91 C92.06 91 86.12 91 80 91 C76.62862669 82.00967118 76.62862669 82.00967118 75.5703125 77.6015625 C75.33505859 76.63742432 75.09980469 75.67328613 74.85742188 74.67993164 C74.61572266 73.6718042 74.37402344 72.66367676 74.125 71.625 C72.36004118 64.40257391 70.54686334 57.21027674 68.5 50.0625 C65.2896719 38.80458002 62.67356056 27.39482308 60 16 C58.25828221 19.98886596 57.2553343 23.91758489 56.3359375 28.16796875 C56.18271027 28.86861954 56.02948303 29.56927032 55.87161255 30.29115295 C55.541331 31.80224333 55.21284771 33.31372765 54.88598633 34.82556152 C54.01461139 38.85332875 53.12877518 42.87790188 52.2421875 46.90234375 C52.05996643 47.73021393 51.87774536 48.55808411 51.69000244 49.41104126 C49.70885638 58.376675 47.61465539 67.31505813 45.5 76.25 C45.3226532 76.99986176 45.1453064 77.74972351 44.96258545 78.52230835 C43.97819646 82.68229559 42.98967456 86.84126116 42 91 C36.06 91 30.12 91 24 91 C20.625219 82.000584 20.625219 82.000584 19.36181641 77.23681641 C19.07787018 76.17435699 18.79392395 75.11189758 18.50137329 74.01724243 C18.20443573 72.89006805 17.90749817 71.76289368 17.6015625 70.6015625 C17.28472504 69.41259369 16.96788757 68.22362488 16.64144897 66.99862671 C15.63216348 63.20841678 14.62835259 59.41678436 13.625 55.625 C12.63041451 51.87934075 11.63466887 48.13399301 10.63812256 44.38885498 C9.99190992 41.95921047 9.34691878 39.52924072 8.70318604 37.09893799 C7.32100586 31.89295118 5.92661484 26.69312435 4.44433594 21.51464844 C4.2120932 20.70095795 3.97985046 19.88726746 3.74057007 19.04891968 C3.32618546 17.60853185 2.90588158 16.16982257 2.47744751 14.73355103 C1.0618228 9.81944572 0.46724939 5.074316 0 0 Z " fill="#FAFDFA" transform="translate(1383,209)"/>
<path d="M0 0 C0.66 0 1.32 0 2 0 C2.88990678 1.46714361 3.71065999 2.97639021 4.5 4.5 C9.82539501 13.59276078 18.6975551 18.51824637 27.31665039 24.1418457 C32.6295302 27.64865499 37.45350038 31.53273146 42.2734375 35.68359375 C44.7834108 37.81599227 47.35496819 39.78991943 50 41.75 C57.60795396 47.71002169 59.58802777 54.65103235 61 64 C61.28048645 69.89618323 60.62026743 75.13289121 59.3125 80.875 C59.05001465 82.0503833 59.05001465 82.0503833 58.78222656 83.24951172 C57.34749678 89.30016533 55.2634325 94.67686011 52 100 C51.34 100 50.68 100 50 100 C49.94392578 98.7315625 49.94392578 98.7315625 49.88671875 97.4375 C48.83062284 79.21466865 39.85251781 69.81810981 26.58203125 57.8125 C24.73508062 56.19110617 22.87849698 54.58465388 21 53 C24.38733696 57.9881038 28.14615254 62.19934548 32.5 66.375 C41.81761389 75.46830097 45.37608203 83.79720994 46.25 96.6875 C45.94974716 100.66585017 45.07768564 104.16074491 44 108 C37.60760997 105.79296731 33.03943749 101.36428209 28 97 C27.49984375 96.56977539 26.9996875 96.13955078 26.484375 95.69628906 C10.6674392 81.98895746 -3.44562806 65.4345124 -6 44 C-6.96299323 28.98732512 -5.3891574 14.11445986 0 0 Z " fill="#449058" transform="translate(420,40)"/>
<path d="M0 0 C4.95 0 9.9 0 15 0 C15.33 23.1 15.66 46.2 16 70 C29.31840141 56.36619553 29.31840141 56.36619553 41.45703125 41.59375 C47.56133009 33.57616347 47.56133009 33.57616347 52.25683594 32.46679688 C57.55476127 31.9650435 62.72913501 32.37375861 68 33 C63.98733442 38.79607251 59.48616192 43.64367501 54.47363281 48.55761719 C50.94159521 52.02788274 47.61536427 55.60421797 44.40234375 59.375 C42.69711909 61.35097064 40.88236824 63.19292649 39 65 C40.45410209 68.92788198 42.30090967 72.41467245 44.421875 76.0234375 C44.75886917 76.59838455 45.09586334 77.1733316 45.44306946 77.76570129 C46.54184245 79.63757278 47.64582679 81.5063098 48.75 83.375 C49.51113522 84.66959021 50.27212013 85.9642688 51.03295898 87.2590332 C56.54010839 96.6124526 62.15229078 105.89866754 67.88378906 115.11669922 C68.42874023 115.99986816 68.97369141 116.88303711 69.53515625 117.79296875 C70.013479 118.5614917 70.49180176 119.33001465 70.98461914 120.12182617 C72 122 72 122 72 124 C66.06 124 60.12 124 54 124 C53.27296875 122.70449219 52.5459375 121.40898437 51.796875 120.07421875 C46.54440647 110.76783155 41.20283968 101.53901875 35.5 92.5 C35.00854492 91.71842529 34.51708984 90.93685059 34.01074219 90.1315918 C31.53084129 86.23698519 28.97861744 82.54062074 26 79 C24.70522938 80.26767077 23.41429661 81.53926224 22.125 82.8125 C21.40570312 83.52019531 20.68640625 84.22789062 19.9453125 84.95703125 C15.98661922 89.11445412 15.67297059 92.24362829 15.5859375 97.73046875 C15.56657135 98.48088943 15.5472052 99.23131012 15.5272522 100.00447083 C15.46752541 102.39869867 15.42109935 104.79297477 15.375 107.1875 C15.3368138 108.8118698 15.29776169 110.43621948 15.2578125 112.06054688 C15.16020075 116.04025928 15.08058024 120.01976038 15 124 C10.05 124 5.1 124 0 124 C0 83.08 0 42.16 0 0 Z " fill="#FBFDFB" transform="translate(1539,176)"/>
<path d="M0 0 C-0.18175781 0.59425781 -0.36351562 1.18851563 -0.55078125 1.80078125 C-1.08555685 3.5641695 -1.6121951 5.33003621 -2.1328125 7.09765625 C-2.68527525 8.94666447 -3.26103499 10.78898414 -3.8671875 12.62109375 C-6.95430167 22.51455963 -6.86520184 31.94226073 -4.5 42 C-1.41750133 55.12263719 -2.03596855 68.41035333 -8.75 80.3125 C-18.4697161 95.20177098 -33.51419167 100.49555584 -50 105 C-48.48409456 101.66808601 -46.49920366 98.98812906 -44.3125 96.0625 C-40.52745327 90.44709308 -38.20489433 84.78747419 -36.0625 78.375 C-35.76835205 77.50496338 -35.4742041 76.63492676 -35.17114258 75.73852539 C-33.2966473 69.84272924 -32.37605836 64.17066311 -32 58 C-32.17015625 59.03898437 -32.3403125 60.07796875 -32.515625 61.1484375 C-33.89023835 69.17841428 -35.48528022 76.57805367 -39 84 C-40.2332954 80.47979921 -39.72050349 78.43209719 -38.5625 74.9375 C-35.99353966 65.88042122 -36.53915335 58.55606165 -39.1875 49.625 C-39.3834375 48.94671143 -39.579375 48.26842285 -39.78125 47.56958008 C-41.55759947 42.07910726 -44.28797804 38.53925571 -49.3125 35.6875 C-49.869375 35.460625 -50.42625 35.23375 -51 35 C-49.7408128 31.22243841 -47.87870395 29.74257608 -45 27 C-44.05303886 26.05633723 -43.1064331 25.11231771 -42.16015625 24.16796875 C-34.70222557 16.91509197 -27.26590686 11.72668731 -18 7 C-16.71433528 6.31997087 -15.42918512 5.63896808 -14.14453125 4.95703125 C-4.63475271 0 -4.63475271 0 0 0 Z " fill="#449058" transform="translate(522,45)"/>
<path d="M0 0 C5.28 0 10.56 0 16 0 C16 30.03 16 60.06 16 91 C10.72 91 5.44 91 0 91 C0 60.97 0 30.94 0 0 Z " fill="#F9FDFA" transform="translate(1617,209)"/>
<path d="M0 0 C5.28 0 10.56 0 16 0 C16 30.03 16 60.06 16 91 C10.72 91 5.44 91 0 91 C0 60.97 0 30.94 0 0 Z " fill="#FAFDFB" transform="translate(1510,209)"/>
<path d="M0 0 C5.61 0 11.22 0 17 0 C17.020625 2.784375 17.04125 5.56875 17.0625 8.4375 C17.071604 9.31591553 17.08070801 10.19433105 17.09008789 11.09936523 C17.09723091 13.06645974 17.05031893 15.03353621 17 17 C15.24440058 18.75559942 12.96417558 18.13221919 10.62890625 18.13671875 C9.92636719 18.13285156 9.22382812 18.12898438 8.5 18.125 C7.79746094 18.12886719 7.09492187 18.13273437 6.37109375 18.13671875 C1.12661378 18.12661378 1.12661378 18.12661378 0 17 C-0.07330331 14.13530675 -0.09217831 11.30106326 -0.0625 8.4375 C-0.041875 5.653125 -0.02125 2.86875 0 0 Z " fill="#FBFEFC" transform="translate(1510,181)"/>
<path d="M0 0 C2.64590014 -0.02684679 5.29153096 -0.04676357 7.9375 -0.0625 C8.69224609 -0.07087891 9.44699219 -0.07925781 10.22460938 -0.08789062 C12.14994313 -0.09652441 14.07535581 -0.05224333 16 0 C17.82116003 1.82116003 17.1323508 4.30671764 17.13671875 6.7265625 C17.13285156 7.47679687 17.12898438 8.22703125 17.125 9 C17.13080078 10.12535156 17.13080078 10.12535156 17.13671875 11.2734375 C17.12661053 16.87338947 17.12661053 16.87338947 16 18 C13.48863896 18.09975032 11.01096585 18.13882183 8.5 18.125 C7.79746094 18.12886719 7.09492187 18.13273437 6.37109375 18.13671875 C1.12661378 18.12661378 1.12661378 18.12661378 0 17 C-0.07325168 14.13732433 -0.09238205 11.299281 -0.0625 8.4375 C-0.05798828 7.63119141 -0.05347656 6.82488281 -0.04882812 5.99414062 C-0.03700518 3.99606244 -0.01906914 1.99802217 0 0 Z " fill="#F1F9F2" transform="translate(1617,181)"/>
<path d="M0 0 C5.61 0 11.22 0 17 0 C17.020625 2.784375 17.04125 5.56875 17.0625 8.4375 C17.071604 9.31591553 17.08070801 10.19433105 17.09008789 11.09936523 C17.09723091 13.06645974 17.05031893 15.03353621 17 17 C15.24440058 18.75559942 12.96417558 18.13221919 10.62890625 18.13671875 C9.92636719 18.13285156 9.22382812 18.12898438 8.5 18.125 C7.79746094 18.12886719 7.09492187 18.13273437 6.37109375 18.13671875 C1.12661378 18.12661378 1.12661378 18.12661378 0 17 C-0.07330331 14.13530675 -0.09217831 11.30106326 -0.0625 8.4375 C-0.041875 5.653125 -0.02125 2.86875 0 0 Z M2 1 C0.49843126 4.00313748 0.90718796 6.79067522 0.9375 10.125 C0.958125 12.39375 0.97875 14.6625 1 17 C5.62 17 10.24 17 15 17 C15.0309375 13.596875 15.0309375 13.596875 15.0625 10.125 C15.07410156 8.84882813 15.08570313 7.57265625 15.09765625 6.2578125 C15.23176569 3.11335348 15.23176569 3.11335348 14 1 C10.04 1 6.08 1 2 1 Z " fill="#D0EAD6" transform="translate(1510,181)"/>
<path d="M0 0 C0.66 0 1.32 0 2 0 C1.3756494 2.97930406 0.75053509 5.95844461 0.125 8.9375 C-0.04902344 9.76830078 -0.22304687 10.59910156 -0.40234375 11.45507812 C-1.56302438 16.97905817 -2.76609747 22.49190357 -4 28 C-4.33 28 -4.66 28 -5 28 C-3.51383399 10.51383399 -3.51383399 10.51383399 -2 9 C-1.60851239 7.48834346 -1.26027543 5.96530368 -0.9375 4.4375 C-0.76089844 3.61121094 -0.58429688 2.78492188 -0.40234375 1.93359375 C-0.26957031 1.29550781 -0.13679688 0.65742188 0 0 Z " fill="#669A73" transform="translate(1480,242)"/>
<path d="M0 0 C0.33 1.32 0.66 2.64 1 4 C1.66 4 2.32 4 3 4 C3.33 3.01 3.66 2.02 4 1 C5 3 5 3 4.44140625 5.1640625 C4.15136719 5.97617187 3.86132812 6.78828125 3.5625 7.625 C3.27503906 8.44226563 2.98757813 9.25953125 2.69140625 10.1015625 C2.46324219 10.72804688 2.23507812 11.35453125 2 12 C0.02833476 8.35443121 -0.60930794 5.14133583 -1 1 C-0.67 0.67 -0.34 0.34 0 0 Z " fill="#719D7B" transform="translate(1470,272)"/>
<path d="M0 0 C6.6 0 13.2 0 20 0 C20.33 1.98 20.66 3.96 21 6 C20.34 5.67 19.68 5.34 19 5 C19 3.68 19 2.36 19 1 C13.39 1 7.78 1 2 1 C1.67 1.99 1.34 2.98 1 4 C0.34 4 -0.32 4 -1 4 C-0.67 2.68 -0.34 1.36 0 0 Z " fill="#E7FAEA" transform="translate(1434,209)"/>
<path d="M0 0 C0.33 0 0.66 0 1 0 C1.33 2.31 1.66 4.62 2 7 C2.66 7 3.32 7 4 7 C3.67 8.65 3.34 10.3 3 12 C2.34 12 1.68 12 1 12 C0.63896464 10.18885568 0.28634496 8.37603177 -0.0625 6.5625 C-0.25972656 5.55316406 -0.45695312 4.54382813 -0.66015625 3.50390625 C-0.77230469 2.67761719 -0.88445312 1.85132813 -1 1 C-0.67 0.67 -0.34 0.34 0 0 Z " fill="#6D9B7C" transform="translate(1414,272)"/>
<path d="M0 0 C2.52588702 2.36292656 3.88820837 3.66462511 5 7 C4.01 7.495 4.01 7.495 3 8 C3 7.01 3 6.02 3 5 C0.69 5 -1.62 5 -4 5 C-2.68 3.35 -1.36 1.7 0 0 Z " fill="#5A916E" transform="translate(1565,254)"/>
<path d="M0 0 C2 2 2 2 2.125 4.625 C2.08375 5.40875 2.0425 6.1925 2 7 C1.34 7 0.68 7 0 7 C-0.66 8.32 -1.32 9.64 -2 11 C-1.125 3.375 -1.125 3.375 0 0 Z " fill="#719C7C" transform="translate(1442,223)"/>
<path d="M0 0 C0.33 0 0.66 0 1 0 C1.08121924 1.60332791 1.13929134 3.20784026 1.1875 4.8125 C1.23970703 6.15248047 1.23970703 6.15248047 1.29296875 7.51953125 C0.95081002 10.41647515 0.24606427 11.22555028 -2 13 C-1.85769192 11.58297487 -1.71099254 10.1663904 -1.5625 8.75 C-1.48128906 7.96109375 -1.40007812 7.1721875 -1.31640625 6.359375 C-1.02365007 4.17635361 -0.57935581 2.1226818 0 0 Z " fill="#6A9B77" transform="translate(1432,266)"/>
<path d="M0 0 C0.33 0 0.66 0 1 0 C0.03644647 9.41002278 0.03644647 9.41002278 -1 14 C-1.33 14 -1.66 14 -2 14 C-2.05437607 12.41705218 -2.09296271 10.83355744 -2.125 9.25 C-2.14820313 8.36828125 -2.17140625 7.4865625 -2.1953125 6.578125 C-1.99139502 3.8864142 -1.36551721 2.30095026 0 0 Z " fill="#679975" transform="translate(1427,233)"/>
<path d="M0 0 C0.66 0.99 1.32 1.98 2 3 C1.34 3 0.68 3 0 3 C-0.33 3.99 -0.66 4.98 -1 6 C-2.65 6.33 -4.3 6.66 -6 7 C-4.02 4.69 -2.04 2.38 0 0 Z " fill="#548E65" transform="translate(1586,232)"/>
<path d="M0 0 C2.2477975 2.05233685 3.0022242 3.00667261 4 6 C3.5625 8.6875 3.5625 8.6875 3 11 C0.87953208 7.46588679 0.46800711 4.05606165 0 0 Z " fill="#679D77" transform="translate(1404,234)"/>
<path d="M0 0 C0.66 0.66 1.32 1.32 2 2 C0.35 3.98 -1.3 5.96 -3 8 C-3.33 7.01 -3.66 6.02 -4 5 C-2.0625 2.3125 -2.0625 2.3125 0 0 Z " fill="#569067" transform="translate(1564,233)"/>
</svg>
